inDegrees=yes
name=ik_OwnShooting_orientations2
DataType=double
version=3
OpenSimVersion=4.3-2021-08-27-4bc7ad9
endheader
time	pelvis_tilt	pelvis_list	pelvis_rotation	pelvis_tx	pelvis_ty	pelvis_tz	hip_flexion_r	hip_adduction_r	hip_rotation_r	knee_angle_r	knee_angle_r_beta	ankle_angle_r	subtalar_angle_r	mtp_angle_r	hip_flexion_l	hip_adduction_l	hip_rotation_l	knee_angle_l	knee_angle_l_beta	ankle_angle_l	subtalar_angle_l	mtp_angle_l	lumbar_extension	lumbar_bending	lumbar_rotation	arm_flex_r	arm_add_r	arm_rot_r	elbow_flex_r	pro_sup_r	wrist_flex_r	wrist_dev_r	arm_flex_l	arm_add_l	arm_rot_l	elbow_flex_l	pro_sup_l	wrist_flex_l	wrist_dev_l
10	7.119794646520674	7.324877792343883	62.81104925830141	0	0.9399999999999999	0	42.13353739986776	-10.37219453919547	0	59.41731032326797	1.037027697820242	-5.124944993798769	0	0	42.13353739986776	-10.37219453919547	0	59.41731032326797	1.037027697820242	-5.124944993798769	0	0	-0.2387843910176948	-1.92428939759696	-0.6424048261514643	89.98702571632634	-25.00581229231499	-20.94441158789035	76.73954844323154	44.98704575284992	0	0	0	-10.43907177304565	0	76.73954844323154	44.98704575284992	0	0
10.01	7.104505123618808	7.314563735562094	62.80783021627723	0	0.9399999999999999	0	42.13403749437517	-10.37196750014856	0	59.4173898909011	1.037029086537419	-5.12484554219558	0	0	42.13403749437517	-10.37196750014856	0	59.4173898909011	1.037029086537419	-5.12484554219558	0	0	-0.3094139599143099	-1.869196170049177	-0.6519813484001801	89.98685229358107	-24.91531883676672	-20.68704719646943	76.73924526513498	44.98705200094183	0	0	0	-10.43947880438679	0	76.73924526513498	44.98705200094183	0	0
10.02	7.099035257257905	7.30092865519148	62.81452676570445	0	0.9399999999999999	0	42.13454037238633	-10.37173927484388	0	59.41746989800721	1.037030482924845	-5.124745587794096	0	0	42.13454037238633	-10.37173927484388	0	59.41746989800721	1.037030482924845	-5.124745587794096	0	0	-0.3875020456594427	-1.807974730897719	-0.6662752932319492	89.98666839355981	-24.84763473925218	-20.46247012980162	76.73894039946326	44.98705828237909	0	0	0	-10.43988811262574	0	76.73894039946326	44.98705828237909	0	0
10.03	7.089784553010633	7.285430742980991	62.81730067792469	0	0.9399999999999999	0	42.13505839906666	-10.37150424481921	0	59.41755230765299	1.037031921244499	-5.124642670288428	0	0	42.13505839906666	-10.37150424481921	0	59.41755230765299	1.037031921244499	-5.124642670288428	0	0	-0.4674807422296963	-1.751232161837831	-0.6739312039256088	89.98648093374754	-24.78669542423386	-20.25814269220344	76.73862634995545	44.98706475179542	0	0	0	-10.44030974907881	0	76.73862634995545	44.98706475179542	0	0
10.04	7.065191302197445	7.270492095896675	62.81735572179458	0	0.9399999999999999	0	42.1355435945293	-10.37128420761409	0	59.41762949730631	1.037033268458098	-5.12454633616669	0	0	42.1355435945293	-10.37128420761409	0	59.41762949730631	1.037033268458098	-5.12454633616669	0	0	-0.5265518278382469	-1.721090843695986	-0.6796290341196196	89.98631608939854	-24.72736350718367	-20.01065594379778	76.73833220396928	44.98707080930746	0	0	0	-10.44070469640474	0	76.73833220396928	44.98707080930746	0	0
10.05	7.056522940186968	7.252974162137669	62.81699918859616	0	0.9399999999999999	0	42.13605104427196	-10.37105413833188	0	59.41771021921234	1.037034677321137	-5.124445625297476	0	0	42.13605104427196	-10.37105413833188	0	59.41771021921234	1.037034677321137	-5.124445625297476	0	0	-0.5977487380355502	-1.666984590657929	-0.6828378555384989	89.98613413161752	-24.65145069439744	-19.77761814040732	76.7380245664316	44.98707714361294	0	0	0	-10.44111775329334	0	76.7380245664316	44.98707714361294	0	0
10.06	7.058802267539301	7.248667402707685	62.81431884818909	0	0.9399999999999999	0	42.13664028444348	-10.37078697820491	0	59.41780391873939	1.037036312686392	-5.124328689989976	0	0	42.13664028444348	-10.37078697820491	0	59.41780391873939	1.037036312686392	-5.124328689989976	0	0	-0.679215939235443	-1.600834734484119	-0.6843444559695702	89.98593194476757	-24.58784100766962	-19.57624233959637	76.7376673441596	44.98708449945956	0	0	0	-10.44159729551083	0	76.7376673441596	44.98708449945956	0	0
10.07	7.048001243641437	7.229807675703548	62.81343162287615	0	0.9399999999999999	0	42.13708410090831	-10.37058600018545	0	59.41787453569665	1.037037545184804	-5.124240754439986	0	0	42.13708410090831	-10.37058600018545	0	59.41787453569665	1.037037545184804	-5.124240754439986	0	0	-0.7518343602076988	-1.578645567720047	-0.6772755525542087	89.98575288484071	-24.5667286025848	-19.44191640574142	76.73739828344257	44.98709003464128	0	0	0	-10.44195866473286	0	76.73739828344257	44.98709003464128	0	0
10.08	7.05222089949232	7.231098768921178	62.81305849591302	0	0.9399999999999999	0	42.1376596896711	-10.37032525677095	0	59.41796606834112	1.037039142730823	-5.124126671368291	0	0	42.1376596896711	-10.37032525677095	0	59.41796606834112	1.037039142730823	-5.124126671368291	0	0	-0.8109799908221699	-1.529772294174705	-0.6800766220627206	89.98563891695593	-24.5396735023073	-19.21854014169415	76.73704933690776	44.98709721569004	0	0	0	-10.44242716734648	0	76.73704933690776	44.98709721569004	0	0
10.09	7.04546763548379	7.223260812536125	62.81401606073631	0	0.9399999999999999	0	42.13823731346809	-10.37006368332738	0	59.41805791751548	1.03704074580133	-5.124012246331126	0	0	42.13823731346809	-10.37006368332738	0	59.41805791751548	1.03704074580133	-5.124012246331126	0	0	-0.8661808654356669	-1.492571409794435	-0.6883540543645105	89.98548528168786	-24.50619426447751	-19.00147226041308	76.73669915653645	44.98710442046795	0	0	0	-10.44289733192945	0	76.73669915653645	44.98710442046795	0	0
10.1	7.02602672592493	7.203363255213767	62.82310495831239	0	0.9399999999999999	0	42.13874047312421	-10.36983599261232	0	59.41813793967664	1.037042142451517	-5.123912669907641	0	0	42.13874047312421	-10.36983599261232	0	59.41813793967664	1.037042142451517	-5.123912669907641	0	0	-0.9009270946016802	-1.46172372501165	-0.6908745793643263	89.98532166586382	-24.4937706453784	-18.82408548826854	76.73639411927833	44.9871106931815	0	0	0	-10.44330696312836	0	76.73639411927833	44.9871106931815	0	0
10.11	7.02508670431622	7.196897964361088	62.8279897147527	0	0.9399999999999999	0	42.13932561142745	-10.36957125513449	0	59.4182309860058	1.037043766416318	-5.12379690743898	0	0	42.13932561142745	-10.36957125513449	0	59.4182309860058	1.037043766416318	-5.12379690743898	0	0	-0.9601928936954076	-1.421333749286115	-0.6972859101464258	89.9851782776903	-24.4883777999892	-18.6379961611782	76.73603938295368	44.98711798710761	0	0	0	-10.44378331355139	0	76.73603938295368	44.98711798710761	0	0
10.12	7.022660428475156	7.18905251861303	62.82868910066003	0	0.9399999999999999	0	42.13992136924149	-10.36930183343331	0	59.41832571898726	1.037045419818755	-5.123679121505744	0	0	42.13992136924149	-10.36930183343331	0	59.41832571898726	1.037045419818755	-5.123679121505744	0	0	-1.020210190378874	-1.382292517685347	-0.7081412896441094	89.9850250490199	-24.47359049592476	-18.45607092157946	76.73567820845616	44.98712541113934	0	0	0	-10.44426833575259	0	76.73567820845616	44.98712541113934	0	0
10.13	7.025725499772467	7.194443473432584	62.8312465712193	0	0.9399999999999999	0	42.14062976094943	-10.36898154478922	0	59.41843834167172	1.037047385455411	-5.123539119864684	0	0	42.14062976094943	-10.36898154478922	0	59.41843834167172	1.037047385455411	-5.123539119864684	0	0	-1.096815614123386	-1.336761051168459	-0.7203398825914094	89.98484932320282	-24.46574326231545	-18.27053511059993	76.73524875029905	44.98713423768594	0	0	0	-10.44484502168632	0	76.73524875029905	44.98713423768594	0	0
10.14	7.019011387477833	7.187031338884106	62.82418738891273	0	0.9399999999999999	0	42.14131462244004	-10.36867206086333	0	59.4185472220128	1.037049285775854	-5.123403874704088	0	0	42.14131462244004	-10.36867206086333	0	59.4185472220128	1.037049285775854	-5.123403874704088	0	0	-1.161634511258984	-1.310263250244527	-0.7113370435845427	89.98466836153085	-24.47649132421677	-18.1096008356378	76.73483355696551	44.98714276790173	0	0	0	-10.44540259247498	0	76.73483355696551	44.98714276790173	0	0
10.15	7.012657383264551	7.166952380642358	62.82324184914772	0	0.9399999999999999	0	42.14193918259583	-10.36839001873283	0	59.4186465246458	1.037051018933755	-5.123280656188085	0	0	42.14193918259583	-10.36839001873283	0	59.4186465246458	1.037051018933755	-5.123280656188085	0	0	-1.215376757165131	-1.279908692370002	-0.7160173144230323	89.98447934810879	-24.46848557568883	-17.9773403470845	76.73445492068466	44.98715054326294	0	0	0	-10.44591114415528	0	76.73445492068466	44.98715054326294	0	0
